<svg id="Layer_1" data-name="Layer 1" xmlns="http://www.w3.org/2000/svg" viewBox="0 0 218.27 218.27"><defs><style>.cls-1{fill:#fff;}.cls-2{fill:#29a7df;}</style></defs><title>logo-square-dark-bg</title><path class="cls-1" d="M48.08,164.59h16.2a17.76,17.76,0,0,1,6.08,1,12.41,12.41,0,0,1,4.42,2.68A10.43,10.43,0,0,1,77,171.71a11.78,11.78,0,0,1,.78,4.36v.11a11.77,11.77,0,0,1-.65,4,10.47,10.47,0,0,1-1.79,3.17,10.81,10.81,0,0,1-2.73,2.34,13.78,13.78,0,0,1-3.51,1.48L78.93,201H71.4l-9-12.67h-8V201H48.08Zm15.71,18A8.4,8.4,0,0,0,69.26,181a5.41,5.41,0,0,0,2-4.46v-.1a5.38,5.38,0,0,0-2-4.51,8.88,8.88,0,0,0-5.58-1.54H54.41v12.26Z"/><path class="cls-1" d="M97.47,201.58a14.7,14.7,0,0,1-5.53-1,13.67,13.67,0,0,1-4.46-2.91,13.43,13.43,0,0,1-3-4.49,14.91,14.91,0,0,1-1.09-5.8v-.1a15.71,15.71,0,0,1,1-5.56,14.09,14.09,0,0,1,2.78-4.54,13.22,13.22,0,0,1,4.24-3.07A12.85,12.85,0,0,1,96.8,173a13,13,0,0,1,5.74,1.19,11.87,11.87,0,0,1,4.1,3.22,14.16,14.16,0,0,1,2.47,4.7,19,19,0,0,1,.83,5.64c0,.27,0,.56,0,.85s0,.6-.07.91H89.68a8,8,0,0,0,2.68,5.17,7.84,7.84,0,0,0,5.22,1.79,9.09,9.09,0,0,0,4-.83,13.2,13.2,0,0,0,3.37-2.44l3.69,3.27a15,15,0,0,1-4.7,3.74A14,14,0,0,1,97.47,201.58Zm6.24-16.26a10.75,10.75,0,0,0-.68-2.83,7.22,7.22,0,0,0-1.4-2.29,6.62,6.62,0,0,0-2.11-1.53,6.47,6.47,0,0,0-2.77-.57,6.32,6.32,0,0,0-4.81,2,9.06,9.06,0,0,0-2.31,5.22Z"/><path class="cls-1" d="M113.68,173.53h6.75l7.38,20.15,7.42-20.15h6.6l-11.22,27.63H125Z"/><path class="cls-1" d="M164,201v-3.37a11.85,11.85,0,0,1-3.59,2.8,11.3,11.3,0,0,1-5.29,1.14,12.78,12.78,0,0,1-3.75-.54,9.47,9.47,0,0,1-3.09-1.61,7.81,7.81,0,0,1-2.93-6.31V193a9,9,0,0,1,.83-4,7.8,7.8,0,0,1,2.31-2.81,10.38,10.38,0,0,1,3.53-1.66,17.45,17.45,0,0,1,4.45-.54,24.25,24.25,0,0,1,4.23.31,25.23,25.23,0,0,1,3.35.83v-.52a5.45,5.45,0,0,0-1.74-4.36,7.41,7.41,0,0,0-5-1.51,16.83,16.83,0,0,0-4.16.47,27.22,27.22,0,0,0-3.69,1.25l-1.71-5a28.6,28.6,0,0,1,4.67-1.67,23.48,23.48,0,0,1,5.77-.62c4.09,0,7.11,1,9.09,3s3,4.87,3,8.54V201Zm.15-11.48a16.27,16.27,0,0,0-2.83-.78,19.08,19.08,0,0,0-3.45-.31,8,8,0,0,0-4.62,1.15,3.59,3.59,0,0,0-1.67,3.11v.11a3.42,3.42,0,0,0,1.53,3,6.61,6.61,0,0,0,3.77,1,9.45,9.45,0,0,0,2.88-.42,7.55,7.55,0,0,0,2.32-1.17,5.46,5.46,0,0,0,1.53-1.82,5.09,5.09,0,0,0,.54-2.36Z"/><path class="cls-2" d="M177.65,106.93,170.54,94.6a1.74,1.74,0,0,0-3,0l-7.11,12.33a1.73,1.73,0,0,0,1.5,2.59h2.76v13.2L108.88,155,53.07,122.72v-19H73l33.63,19.9a4.33,4.33,0,0,0,4.43,0l35.05-20.74a4.35,4.35,0,0,0,0-7.51L111.06,75.15a4.34,4.34,0,0,0-4.35,0L72.25,95H48.73a4.35,4.35,0,0,0-4.35,4.35v25.84A4.36,4.36,0,0,0,46.55,129l60.16,34.73a4.31,4.31,0,0,0,2.17.58,4.37,4.37,0,0,0,2.18-.58L171.21,129a4.35,4.35,0,0,0,2.18-3.77V109.52h2.76a1.73,1.73,0,0,0,1.5-2.59Zm-68.77-23,26.44,15.26-26.44,15.65L82.44,99.19Z"/><path class="cls-1" d="M171.21,52,111.06,17.27a4.38,4.38,0,0,0-4.35,0L46.55,52a4.34,4.34,0,0,0-2.17,3.76V69H42a1.64,1.64,0,0,0-1.42,2.45l6.71,11.62a1.63,1.63,0,0,0,2.83,0l6.71-11.62A1.64,1.64,0,0,0,55.43,69H53.07V58.28l55.81-32.22,55.81,32.22V75H145.53l-34.47-19.9a4.34,4.34,0,0,0-4.35,0l-35,20.24a4.35,4.35,0,0,0,0,7.5l35.05,20.75a4.39,4.39,0,0,0,4.43,0l33.6-19.89,24.34,0a4.34,4.34,0,0,0,4.35-4.34V55.77A4.33,4.33,0,0,0,171.21,52ZM108.88,94.82,82.44,79.18l26.44-15.27,26.44,15.27Z"/></svg>