<svg id="Layer_1" data-name="Layer 1" xmlns="http://www.w3.org/2000/svg" viewBox="0 0 218.27 89.13"><defs><style>.cls-1{fill:#fff;}.cls-2{fill:#29a7df;}</style></defs><title>logo-dark-bg</title><path class="cls-1" d="M98.73,29.52h13.19a14.43,14.43,0,0,1,4.94.78,10,10,0,0,1,3.6,2.18,8.57,8.57,0,0,1,1.81,2.83,9.43,9.43,0,0,1,.64,3.55v.08a9.6,9.6,0,0,1-.53,3.28,8.59,8.59,0,0,1-1.46,2.58,8.87,8.87,0,0,1-2.22,1.9,11,11,0,0,1-2.85,1.2l8,11.2h-6.13l-7.29-10.31h-6.53V59.1H98.73Zm12.79,14.66A6.88,6.88,0,0,0,116,42.85a4.42,4.42,0,0,0,1.65-3.63v-.09A4.36,4.36,0,0,0,116,35.46a7.24,7.24,0,0,0-4.53-1.25h-7.59v10Z"/><path class="cls-1" d="M138.92,59.61a12,12,0,0,1-4.5-.84,11.19,11.19,0,0,1-3.63-2.37,10.85,10.85,0,0,1-2.43-3.66,12.16,12.16,0,0,1-.89-4.71V48a12.77,12.77,0,0,1,.8-4.53,11.21,11.21,0,0,1,2.27-3.69,10.69,10.69,0,0,1,3.44-2.5,11.36,11.36,0,0,1,9.07.07,9.47,9.47,0,0,1,3.33,2.62,11.25,11.25,0,0,1,2,3.82,15.4,15.4,0,0,1,.68,4.59c0,.22,0,.45,0,.69l-.06.74h-16.4A6.19,6.19,0,0,0,139,55.43a7.5,7.5,0,0,0,3.3-.68,10.5,10.5,0,0,0,2.74-2l3,2.67a12.41,12.41,0,0,1-3.82,3A11.5,11.5,0,0,1,138.92,59.61ZM144,46.38a9.1,9.1,0,0,0-.55-2.3,5.82,5.82,0,0,0-1.14-1.86A5.4,5.4,0,0,0,140.59,41a5.25,5.25,0,0,0-2.26-.46,5.18,5.18,0,0,0-3.91,1.62,7.41,7.41,0,0,0-1.88,4.25Z"/><path class="cls-1" d="M152.11,36.79h5.5l6,16.4,6-16.4H175l-9.13,22.48h-4.61Z"/><path class="cls-1" d="M193,59.1V56.36a9.58,9.58,0,0,1-2.91,2.28,9.21,9.21,0,0,1-4.31.93,10.51,10.51,0,0,1-3.05-.44,7.79,7.79,0,0,1-2.51-1.31,6.42,6.42,0,0,1-2.39-5.14V52.6a7.3,7.3,0,0,1,.68-3.24,6.3,6.3,0,0,1,1.88-2.28,8,8,0,0,1,2.87-1.35,13.86,13.86,0,0,1,3.62-.45,19.69,19.69,0,0,1,3.44.26,21.77,21.77,0,0,1,2.73.67v-.42a4.46,4.46,0,0,0-1.42-3.55A6,6,0,0,0,187.57,41a13.8,13.8,0,0,0-3.38.38,23.62,23.62,0,0,0-3,1l-1.39-4.1A23.88,23.88,0,0,1,183.6,37a18.73,18.73,0,0,1,4.69-.51c3.33,0,5.79.82,7.4,2.47a9.58,9.58,0,0,1,2.41,6.95V59.1Zm.13-9.34a13.45,13.45,0,0,0-2.3-.63,15,15,0,0,0-2.81-.25,6.55,6.55,0,0,0-3.76.93,2.9,2.9,0,0,0-1.36,2.53v.09a2.79,2.79,0,0,0,1.25,2.45,5.35,5.35,0,0,0,3.06.84,8,8,0,0,0,2.35-.33,6.17,6.17,0,0,0,1.88-1A4.23,4.23,0,0,0,192.71,53a4.18,4.18,0,0,0,.44-1.92Z"/><path class="cls-2" d="M81.57,52l-3.21-5.56a.78.78,0,0,0-1.35,0L73.8,52a.78.78,0,0,0,0,.78.79.79,0,0,0,.68.39h1.24v6L50.54,73.65,25.35,59.11V50.54h9l15.17,9a2,2,0,0,0,1,.27,2,2,0,0,0,1-.27l15.82-9.37a2,2,0,0,0,1-1.69,2,2,0,0,0-1-1.69L51.52,37.64a2,2,0,0,0-2,0L34,46.61H23.39a2,2,0,0,0-2,2v0h0V60.24a2,2,0,0,0,1,1.7L49.56,77.61a2,2,0,0,0,2,0L78.67,61.94a2,2,0,0,0,1-1.7V53.15H80.9a.79.79,0,0,0,.67-.39A.78.78,0,0,0,81.57,52Zm-31-10.38,11.93,6.89L50.54,55.55,38.61,48.49Z"/><path class="cls-1" d="M78.67,27.19,51.52,11.52a2,2,0,0,0-2,0L22.41,27.19a2,2,0,0,0-1,1.7v6H20.36a.72.72,0,0,0-.63.37.75.75,0,0,0,0,.74l3,5.24a.74.74,0,0,0,1.28,0l3-5.24a.75.75,0,0,0,0-.74.74.74,0,0,0-.64-.37H25.35V30L50.54,15.48,75.72,30v7.56H67.08l-15.56-9a2,2,0,0,0-2,0L33.74,37.73a2,2,0,0,0,0,3.39l15.82,9.36a2,2,0,0,0,1,.28,2,2,0,0,0,1-.28l15.16-9h11a2,2,0,0,0,2-2V28.89A2,2,0,0,0,78.67,27.19ZM50.54,46.52,38.61,39.45l11.93-6.89,11.93,6.89Z"/></svg>