<svg id="Layer_1" data-name="Layer 1" xmlns="http://www.w3.org/2000/svg" viewBox="0 0 218.27 218.27"><defs><style>.cls-1{fill:#29a7df;}.cls-2{fill:#fff;}</style></defs><title>mark-dark-bg</title><path class="cls-1" d="M197.15,130.23,188,114.4a2.23,2.23,0,0,0-3.86,0L175,130.23a2.23,2.23,0,0,0,1.92,3.34h3.56v17l-71.69,41.39L37.12,150.52V126.13H62.78L106,151.69a5.56,5.56,0,0,0,5.68,0l45-26.65a5.57,5.57,0,0,0-.06-9.63l-45-26a5.56,5.56,0,0,0-5.58,0L61.76,115H31.54A5.58,5.58,0,0,0,26,120.55v33.2a5.58,5.58,0,0,0,2.79,4.83L106,203.19a5.56,5.56,0,0,0,5.58,0l77.27-44.61a5.58,5.58,0,0,0,2.79-4.83V133.57h3.56a2.23,2.23,0,0,0,1.93-3.34Zm-88.34-29.54,34,19.61-34,20.1-34-20.1Z"/><path class="cls-2" d="M188.87,59.69,111.6,15.08a5.56,5.56,0,0,0-5.58,0L28.75,59.69A5.56,5.56,0,0,0,26,64.52v17h-3a2.12,2.12,0,0,0-1.82,1.05,2.16,2.16,0,0,0,0,2.09l8.62,14.93a2.1,2.1,0,0,0,3.64,0L42,84.71a2.06,2.06,0,0,0,0-2.09,2.09,2.09,0,0,0-1.81-1.05h-3V67.75l71.69-41.39L180.5,67.75v21.5l-24.61,0L111.6,63.7a5.56,5.56,0,0,0-5.58,0l-45,26a5.59,5.59,0,0,0-.06,9.64L106,126a5.56,5.56,0,0,0,5.68,0l43.16-25.55,31.27,0a5.58,5.58,0,0,0,5.58-5.58V64.52A5.56,5.56,0,0,0,188.87,59.69Zm-80.06,55-34-20.1,34-19.61,34,19.61Z"/></svg>